# AST/ASF file generated using VICON BodyLanguage
# -----------------------------------------------
:version 1.10
:name VICON
:units
  mass 1.0
  length 0.45
  angle deg
:documentation
   .ast/.asf automatically generated from VICON data using
   VICON BodyBuilder and BodyLanguage model FoxedUp or BRILLIANT.MOD
:root
   order TX TY TZ RX RY RZ
   axis XYZ
   position 0 0 0  
   orientation 0 0 0 
:bonedata
  begin
     id 1 
     name lhipjoint
     direction 0.535335 -0.74333 0.401095 
     length 2.04549 
     axis 0 0 0  XYZ
  end
  begin
     id 2 
     name lfemur
     direction 0.34202 -0.939693 0  
     length 6.95643  
     axis 0 0 20  XYZ
    dof rx ry rz
    limits (-160.0 20.0)
           (-70.0 70.0)
           (-60.0 70.0)
  end
  begin
     id 3 
     name ltibia
     direction 0.34192 -0.939729 0   
     length 5.55969   
     axis 0 0 20   XYZ
    dof rx
    limits (-10.0 170.0)
  end
  begin
     id 4 
     name lfoot
     direction 0.216943 -0.596046 0.773088   
     length 2.27918   
     axis -90 7.62852e-016 20   XYZ
    dof rx rz
    limits (-45.0 90.0)
           (-70.0 20.0)
  end
  begin
     id 5 
     name ltoes
     direction 1.53519e-011 -4.21748e-011 1   
     length 1.05562   
     axis -90 7.62852e-016 20   XYZ
    dof rx
    limits (-90.0 20.0)
  end
  begin
     id 6 
     name rhipjoint
     direction -0.576368 -0.719173 0.38806   
     length 2.1142  
     axis 0 0 0  XYZ 
  end
  begin
     id 7 
     name rfemur
     direction -0.34202 -0.939693 0   
     length 7.07928   
     axis 0 0 -20   XYZ
    dof rx ry rz
    limits (-160.0 20.0)
           (-70.0 70.0)
           (-70.0 60.0)
  end
  begin
     id 8 
     name rtibia
     direction -0.34202 -0.939693 0   
     length 5.79974   
     axis 0 0 -20   XYZ
    dof rx
    limits (-10.0 170.0)
 end
 begin
     id 9 
     name rfoot
     direction -0.189288 -0.520065 0.832888   
     length 2.42173  
     axis -90 -7.62852e-016 -20   XYZ
    dof rx rz
    limits (-45.0 90.0)
           (-20.0 70.0)
  end
  begin
     id 10 
     name rtoes
     direction -1.53574e-011 -4.21658e-011 1   
     length 1.14469   
     axis -90 -7.62852e-016 -20   XYZ
    dof rx
    limits (-90.0 20.0)
  end
  begin
     id 11 
     name lowerback
     direction -0.00135702 0.993803 0.111144   
     length 1.91308   
     axis 0 0 0   XYZ
    dof rx ry rz
    limits (-20.0 45.0)
           (-30.0 30.0)
           (-30.0 30.0)
  end
  begin
     id 12 
     name upperback
     direction -0.0056745 0.999813 0.0184631   
     length 1.9212   
     axis 0 0 0   XYZ
    dof rx ry rz
    limits (-20.0 45.0)
           (-30.0 30.0)
           (-30.0 30.0)
  end
  begin
     id 13 
     name thorax
     direction -0.00733434 0.999426 -0.0330788   
     length 1.94196   
     axis 0 0 0   XYZ
    dof rx ry rz
    limits (-20.0 45.0)
           (-30.0 30.0)
           (-30.0 30.0)
  end
  begin
     id 14 
     name lowerneck
     direction 0.0563074 0.996944 -0.0541571   
     length 2.34257   
     axis 0 0 0   XYZ
    dof rx ry rz
    limits (-20.0 45.0)
           (-30.0 30.0)
           (-30.0 30.0)
  end
  begin
     id 15 
     name upperneck
     direction -0.0544519 0.976166 -0.210085   
     length 2.32506   
     axis 0 0 0   XYZ
    dof rx ry rz
    limits (-20.0 45.0)
           (-30.0 30.0)
           (-30.0 30.0)
  end
  begin
     id 16
     name head
     direction -0.0226035 0.997615 -0.0652205  
     length 2.3648  
     axis 0 0 0   XYZ
    dof rx ry rz
    limits (-20.0 45.0)
           (-30.0 30.0)
           (-30.0 30.0)
  end
  begin
     id 17 
     name lclavicle
     direction 0.92109 0.381297 -0.0787716  
     length 4.0487  
     axis 0 0 0   XYZ
    dof ry rz
    limits (-20.0 10.0)
           (0.0 20.0)
  end
  begin
     id 18 
     name lhumerus
     direction 1 -4.48986e-011 3.56724e-027   
     length 4.94991   
     axis 180 -30 -90   XYZ
    dof rx ry rz
    limits (-60.0 90.0)
           (-90.0 90.0)
           (-90.0 90.0)
  end
  begin
     id 19
     name lradius
     direction 1 -4.48981e-011 8.62147e-027   
     length 2.7606   
     axis 180 -30 -90   XYZ
    dof rx
    limits (-10.0 170.0)
  end
  begin
     id 20
     name lwrist
     direction 1 -4.48989e-011 1.59799e-026   
     length 1.3803   
     axis -1.17785e-014 90 90   XYZ
    dof ry
    limits (-180.0 0.0)
 end
  begin
     id 21 
     name lhand
     direction 1 -4.48896e-011 3.19599e-026   
     length 0.843936   
     axis -2.03931e-014 90 90   XYZ
    dof rx rz
    limits (-90.0 90.0)
           (-45.0 45.0)
  end
  begin
     id 22 
     name lfingers
     direction 1 -4.48887e-011 6.39197e-026   
     length 0.680403   
     axis -4.07862e-014 90 90   XYZ
    dof rx
    limits (0.0 90.0)
  end
  begin
     id 23
     name lthumb
     direction 0.707107 -6.348e-011 0.707107   
     length 0.976926   
     axis -90 45 2.85299e-015   XYZ
    dof rx rz
    limits (-45.0 45.0)
           (-45.0 45.0)
  end
  begin
     id 24 
     name rclavicle
     direction -0.951104 0.307692 -0.026953   
     length 4.21801  
     axis 0 0 0   XYZ 
    dof ry rz
    limits (-10.0 20.0)
           (-20.0 0.0)
  end
  begin
     id 25 
     name rhumerus
     direction -1 -4.4896e-011 -1.8171e-018  
     length 4.32982   
     axis 180 30 90   XYZ
    dof rx ry rz
    limits (-90.0 60.0)
           (-90.0 90.0)
           (-90.0 90.0)
  end
  begin
     id 26 
     name rradius
     direction -1 -4.48959e-011 8.25165e-027   
     length 3.20057   
     axis 180 30 90   XYZ
    dof rx
    limits (-10.0 170.0)
  end
  begin
     id 27 
     name rwrist
     direction -1 -4.48997e-011 1.59799e-026   
     length 1.60029   
     axis -1.17785e-014 -90 -90   XYZ
    dof ry
    limits (-180.0 0.0)
  end
  begin
     id 28
     name rhand
     direction -1 -4.49023e-011 3.19599e-026   
     length 0.960433   
     axis -2.03931e-014 -90 -90   XYZ
    dof rx rz
    limits (-90.0 90.0)
           (-45.0 45.0)
  end
  begin
     id 29
     name rfingers
     direction -1 -4.48802e-011 6.39197e-026   
     length 0.774326   
     axis -4.07862e-014 -90 -90   XYZ
    dof rx
    limits (0.0 90.0)
  end
  begin
     id 30
     name rthumb
     direction -0.707107 -6.34876e-011 0.707107   
     length 1.11178   
     axis -90 -45 -2.85299e-015   XYZ
    dof rx rz
    limits (-45.0 45.0)
           (-45.0 45.0)
  end
:hierarchy
  begin
    root lhipjoint rhipjoint lowerback
    lhipjoint lfemur
    lfemur ltibia
    ltibia lfoot
    lfoot ltoes
    rhipjoint rfemur
    rfemur rtibia
    rtibia rfoot
    rfoot rtoes
    lowerback upperback
    upperback thorax
    thorax lowerneck lclavicle rclavicle
    lowerneck upperneck
    upperneck head
    lclavicle lhumerus
    lhumerus lradius
    lradius lwrist
    lwrist lhand lthumb
    lhand lfingers
    rclavicle rhumerus
    rhumerus rradius
    rradius rwrist
    rwrist rhand rthumb
    rhand rfingers
end

#!OML:ASF C:\KaitlinTest1\Natural Motions\Nikki\Session 2\Nikki.ASF
:FULLY-SPECIFIED
:DEGREES
548
root 0.77082 16.5656 5.10639 -147.253 84.4368 -158.703
lowerback -12.0134 -3.3165 0.644088
upperback -4.12183 -4.31851 0.562814
thorax 2.40287 -2.07651 -0.370058
lowerneck 2.93443 -8.88989 -13.5425
upperneck 9.3154 43.8113 7.201
head 171.907 58.9834 -32.8751
rclavicle 2.34814e-015 4.17448e-015
rhumerus -38.7322 -19.0838 -81.1597
rradius 17.798
rwrist 19.3092
rhand -37.5237 2.23758
rfingers 7.12502
rthumb -10.5798 -27.4761
lclavicle 2.34814e-015 4.17448e-015
lhumerus -39.2365 18.2943 81.5874
lradius 21.5264
lwrist -35.5512
lhand -34.7944 4.48762
lfingers 7.12502
lthumb -7.94634 34.3183
rfemur -19.0794 -17.6477 23.0501
rtibia 26.2296
rfoot -16.4506 13.1484
rtoes -1.98785e-014
lfemur -22.4683 19.3003 -20.6231
ltibia 27.8886
lfoot -9.30436 -23.7203
ltoes 4.92986e-014
549
root 0.7765 16.5662 5.10402 -146.889 84.413 -158.33
lowerback -12.0496 -3.29557 0.683852
upperback -4.14588 -4.29382 0.568477
thorax 2.39513 -2.06368 -0.384182
lowerneck 2.88512 -8.90163 -13.5434
upperneck 9.32306 43.8851 7.22675
head 172.003 58.8539 -32.8355
rclavicle 3.98936e-014 -4.96962e-015
rhumerus -38.8203 -18.9744 -81.2011
rradius 17.8837
rwrist 19.1446
rhand -37.5193 2.20384
rfingers 7.12502
rthumb -10.5756 -27.5101
lclavicle 3.98936e-014 -4.96962e-015
lhumerus -39.3634 18.4636 81.4163
lradius 21.451
lwrist -35.6695
lhand -34.863 4.5165
lfingers 7.12502
lthumb -8.01258 34.3446
rfemur -19.0395 -17.6353 23.0769
rtibia 26.2164
rfoot -16.5123 13.1739
rtoes 9.06458e-014
lfemur -22.4478 19.3238 -20.5786
ltibia 27.8952
lfoot -9.29554 -23.7139
ltoes 9.54166e-015
550
root 0.78056 16.5655 5.10218 -146.919 84.3886 -158.331
lowerback -12.0604 -3.28953 0.687995
upperback -4.15375 -4.28536 0.559134
thorax 2.39181 -2.0593 -0.395315
lowerneck 2.8575 -8.93779 -13.5211
upperneck 9.27492 43.7738 7.18167
head 171.914 58.9287 -32.8772
rclavicle -3.85394e-014 2.5842e-015
rhumerus -38.9805 -19.0015 -81.1984
rradius 18.0201
rwrist 19.1881
rhand -37.5083 2.23792
rfingers 7.12502
rthumb -10.565 -27.4765
lclavicle -3.85394e-014 2.5842e-015
lhumerus -39.5233 18.6331 81.1961
lradius 21.4744
lwrist -35.907
lhand -34.8088 4.33001
lfingers 7.12502
lthumb -7.96025 34.1601
rfemur -18.9695 -17.611 23.0658
rtibia 26.2028
rfoot -16.5736 13.1205
rtoes -3.18055e-014
lfemur -22.3951 19.3017 -20.5528
ltibia 27.8958
lfoot -9.37869 -23.7018
ltoes -2.54444e-014
551
root 0.785162 16.5657 5.10034 -146.844 84.3828 -158.208
lowerback -12.0847 -3.27346 0.683399
upperback -4.12658 -4.26515 0.564069
thorax 2.43424 -2.04921 -0.387359
lowerneck 2.77583 -8.97332 -13.5132
upperneck 9.20946 43.6752 7.12775
head 171.857 58.9789 -32.9088
rclavicle -4.56832e-014 -4.77083e-015
rhumerus -38.961 -19.1073 -81.1419
rradius 18.0175
rwrist 19.2174
rhand -37.5346 2.30974
rfingers 7.12502
rthumb -10.5904 -27.4034
lclavicle -4.56832e-014 -4.77083e-015
lhumerus -39.5438 18.6014 81.2031
lradius 21.4533
lwrist -35.6827
lhand -34.8853 4.4111
lfingers 7.12502
lthumb -8.03406 34.2384
rfemur -18.8608 -17.4463 23.0212
rtibia 26.1641
rfoot -16.4409 12.946
rtoes -1.43125e-014
lfemur -22.328 19.2915 -20.5157
ltibia 27.9221
lfoot -9.40455 -23.6844
ltoes 2.22639e-014
552
root 0.789252 16.5656 5.0976 -146.697 84.3867 -158.059
lowerback -12.1315 -3.27686 0.68304
upperback -4.12278 -4.26961 0.56392
thorax 2.46357 -2.05099 -0.390848
lowerneck 2.68533 -8.97991 -13.4868
upperneck 9.18525 43.6868 7.12693
head 171.856 59.0267 -32.9427
rclavicle 2.38542e-014 1.21259e-014
rhumerus -38.9578 -19.0592 -81.1955
rradius 18.0609
rwrist 19.2016
rhand -37.5232 2.33939
rfingers 7.12502
rthumb -10.5794 -27.3743
lclavicle 2.38542e-014 1.21259e-014
lhumerus -39.5217 18.4557 81.2466
lradius 21.3299
lwrist -35.3295
lhand -34.9408 4.55296
lfingers 7.12502
lthumb -8.08761 34.3782
rfemur -18.8323 -17.4151 23.0139
rtibia 26.1424
rfoot -16.4482 12.9242
rtoes -2.62396e-014
lfemur -22.3046 19.2547 -20.4928
ltibia 27.9396
lfoot -9.4289 -23.6414
ltoes -2.70347e-014
553
root 0.793524 16.5633 5.09628 -146.328 84.3782 -157.652
lowerback -12.1292 -3.25572 0.718427
upperback -4.12278 -4.24578 0.567272
thorax 2.46019 -2.03924 -0.403629
lowerneck 2.63801 -8.99702 -13.488
upperneck 9.14853 43.6422 7.10407
head 171.881 59.013 -32.9227
rclavicle -1.84994e-014 -1.23246e-014
rhumerus -38.9643 -18.9129 -81.2972
rradius 18.1265
rwrist 18.9994
rhand -37.5353 2.22345
rfingers 7.12502
rthumb -10.5911 -27.4897
lclavicle -1.84994e-014 -1.23246e-014
lhumerus -39.6374 18.6214 81.0486
lradius 21.2748
lwrist -35.672
lhand -34.8016 4.55749
lfingers 7.12502
lthumb -7.9533 34.3879
rfemur -18.7462 -17.4401 23.0429
rtibia 26.1134
rfoot -16.5002 12.9275
rtoes -8.50798e-014
lfemur -22.2513 19.3055 -20.4406
ltibia 27.9607
lfoot -9.49093 -23.6548
ltoes -3.97569e-014
